<mxfile host="65bd71144e">
    <diagram id="pIaEtrtLPv3HG8r1JEND" name="Page-1">
        <mxGraphModel dx="693" dy="572" grid="1" gridSize="10" guides="1" tooltips="1" connect="1" arrows="1" fold="1" page="1" pageScale="1" pageWidth="850" pageHeight="1100" math="0" shadow="0">
            <root>
                <mxCell id="0"/>
                <mxCell id="1" parent="0"/>
                <mxCell id="6" value="" style="rounded=0;whiteSpace=wrap;html=1;" vertex="1" parent="1">
                    <mxGeometry x="80" y="80" width="700" height="430" as="geometry"/>
                </mxCell>
                <mxCell id="7" value="&lt;div&gt;Fancy Border&lt;/div&gt;" style="rounded=0;whiteSpace=wrap;html=1;" vertex="1" parent="1">
                    <mxGeometry x="80" y="80" width="700" height="40" as="geometry"/>
                </mxCell>
                <mxCell id="8" value="Input value B" style="shape=partialRectangle;whiteSpace=wrap;html=1;top=0;left=0;fillColor=none;align=left;" vertex="1" parent="1">
                    <mxGeometry x="100" y="240" width="120" height="20" as="geometry"/>
                </mxCell>
                <mxCell id="9" value="Calculate" style="labelPosition=center;verticalLabelPosition=middle;align=center;html=1;shape=mxgraph.basic.button;dx=10;" vertex="1" parent="1">
                    <mxGeometry x="100" y="275" width="100" height="40" as="geometry"/>
                </mxCell>
                <mxCell id="10" value="Input value A" style="shape=partialRectangle;whiteSpace=wrap;html=1;top=0;left=0;fillColor=none;align=left;" vertex="1" parent="1">
                    <mxGeometry x="100" y="210" width="120" height="20" as="geometry"/>
                </mxCell>
                <mxCell id="11" value="&lt;h5 style=&quot;padding: 0px ; font-size: 20px ; font-weight: 500 ; line-height: 1 ; letter-spacing: 0.02em ; font-family: &amp;#34;roboto&amp;#34; , &amp;#34;helvetica&amp;#34; , &amp;#34;arial&amp;#34; , sans-serif ; margin: 24px 0px 16px&quot;&gt;&lt;font color=&quot;#ffffff&quot;&gt;Multiplication!&lt;/font&gt;&lt;/h5&gt;&lt;div&gt;&lt;br&gt;&lt;/div&gt;" style="text;html=1;strokeColor=none;fillColor=none;align=left;verticalAlign=middle;whiteSpace=wrap;rounded=0;" vertex="1" parent="1">
                    <mxGeometry x="110" y="140" width="180" height="30" as="geometry"/>
                </mxCell>
                <mxCell id="13" value="&lt;h6 style=&quot;padding: 0px ; font-family: &amp;#34;roboto&amp;#34; , &amp;#34;helvetica&amp;#34; , &amp;#34;arial&amp;#34; , sans-serif ; margin: 24px 0px 16px ; font-size: 16px ; letter-spacing: 0.04em ; font-weight: 400 ; line-height: 24px&quot;&gt;Add two numbers to produce the product:&lt;/h6&gt;&lt;div&gt;&lt;br&gt;&lt;/div&gt;&lt;p style=&quot;color: black ; font-family: &amp;#34;helvetica&amp;#34; , &amp;#34;arial&amp;#34; , sans-serif ; font-size: 14px ; padding: 0px ; line-height: 24px ; margin: 0px 0px 16px ; background-color: rgb(251 , 217 , 238)&quot;&gt;&lt;/p&gt;" style="text;html=1;strokeColor=none;fillColor=none;align=center;verticalAlign=middle;whiteSpace=wrap;rounded=0;labelBackgroundColor=none;fontColor=#FFFFFF;" vertex="1" parent="1">
                    <mxGeometry x="90" y="180" width="350" height="30" as="geometry"/>
                </mxCell>
                <mxCell id="14" value="" style="sketch=0;outlineConnect=0;fontColor=#232F3E;gradientColor=none;fillColor=#D45B07;strokeColor=none;dashed=0;verticalLabelPosition=bottom;verticalAlign=top;align=center;html=1;fontSize=12;fontStyle=0;aspect=fixed;pointerEvents=1;shape=mxgraph.aws4.container_registry_image;labelBackgroundColor=none;" vertex="1" parent="1">
                    <mxGeometry x="530" y="191" width="208" height="208" as="geometry"/>
                </mxCell>
            </root>
        </mxGraphModel>
    </diagram>
    <diagram name="Copy of Page-1" id="B1bG_mIEBuJXoVyBGlFT">
        <mxGraphModel dx="800" dy="660" grid="1" gridSize="10" guides="1" tooltips="1" connect="1" arrows="1" fold="1" page="1" pageScale="1" pageWidth="850" pageHeight="1100" math="0" shadow="0">
            <root>
                <mxCell id="TIX_3B0mCCPL17P6vs3_-0"/>
                <mxCell id="TIX_3B0mCCPL17P6vs3_-1" parent="TIX_3B0mCCPL17P6vs3_-0"/>
                <mxCell id="TIX_3B0mCCPL17P6vs3_-2" value="" style="rounded=0;whiteSpace=wrap;html=1;" vertex="1" parent="TIX_3B0mCCPL17P6vs3_-1">
                    <mxGeometry x="80" y="80" width="700" height="430" as="geometry"/>
                </mxCell>
                <mxCell id="TIX_3B0mCCPL17P6vs3_-3" value="&lt;div&gt;Fancy Border&lt;/div&gt;" style="rounded=0;whiteSpace=wrap;html=1;" vertex="1" parent="TIX_3B0mCCPL17P6vs3_-1">
                    <mxGeometry x="80" y="80" width="700" height="40" as="geometry"/>
                </mxCell>
                <mxCell id="TIX_3B0mCCPL17P6vs3_-4" value="Input value B" style="shape=partialRectangle;whiteSpace=wrap;html=1;top=0;left=0;fillColor=none;align=left;" vertex="1" parent="TIX_3B0mCCPL17P6vs3_-1">
                    <mxGeometry x="100" y="240" width="120" height="20" as="geometry"/>
                </mxCell>
                <mxCell id="TIX_3B0mCCPL17P6vs3_-5" value="Calculate" style="labelPosition=center;verticalLabelPosition=middle;align=center;html=1;shape=mxgraph.basic.button;dx=10;" vertex="1" parent="TIX_3B0mCCPL17P6vs3_-1">
                    <mxGeometry x="100" y="275" width="100" height="40" as="geometry"/>
                </mxCell>
                <mxCell id="TIX_3B0mCCPL17P6vs3_-6" value="Input value A" style="shape=partialRectangle;whiteSpace=wrap;html=1;top=0;left=0;fillColor=none;align=left;" vertex="1" parent="TIX_3B0mCCPL17P6vs3_-1">
                    <mxGeometry x="100" y="210" width="120" height="20" as="geometry"/>
                </mxCell>
                <mxCell id="TIX_3B0mCCPL17P6vs3_-7" value="&lt;h5 style=&quot;padding: 0px ; font-size: 20px ; font-weight: 500 ; line-height: 1 ; letter-spacing: 0.02em ; font-family: &amp;#34;roboto&amp;#34; , &amp;#34;helvetica&amp;#34; , &amp;#34;arial&amp;#34; , sans-serif ; margin: 24px 0px 16px&quot;&gt;&lt;font color=&quot;#ffffff&quot;&gt;Multiplication!&lt;/font&gt;&lt;/h5&gt;&lt;div&gt;&lt;br&gt;&lt;/div&gt;" style="text;html=1;strokeColor=none;fillColor=none;align=left;verticalAlign=middle;whiteSpace=wrap;rounded=0;" vertex="1" parent="TIX_3B0mCCPL17P6vs3_-1">
                    <mxGeometry x="110" y="140" width="180" height="30" as="geometry"/>
                </mxCell>
                <mxCell id="TIX_3B0mCCPL17P6vs3_-8" value="&lt;h6 style=&quot;padding: 0px ; font-family: &amp;#34;roboto&amp;#34; , &amp;#34;helvetica&amp;#34; , &amp;#34;arial&amp;#34; , sans-serif ; margin: 24px 0px 16px ; font-size: 16px ; letter-spacing: 0.04em ; font-weight: 400 ; line-height: 24px&quot;&gt;Add two numbers to produce the product:&lt;/h6&gt;&lt;div&gt;&lt;br&gt;&lt;/div&gt;&lt;p style=&quot;color: black ; font-family: &amp;#34;helvetica&amp;#34; , &amp;#34;arial&amp;#34; , sans-serif ; font-size: 14px ; padding: 0px ; line-height: 24px ; margin: 0px 0px 16px ; background-color: rgb(251 , 217 , 238)&quot;&gt;&lt;/p&gt;" style="text;html=1;strokeColor=none;fillColor=none;align=center;verticalAlign=middle;whiteSpace=wrap;rounded=0;labelBackgroundColor=none;fontColor=#FFFFFF;" vertex="1" parent="TIX_3B0mCCPL17P6vs3_-1">
                    <mxGeometry x="90" y="180" width="350" height="30" as="geometry"/>
                </mxCell>
                <mxCell id="TIX_3B0mCCPL17P6vs3_-9" value="" style="sketch=0;outlineConnect=0;fontColor=#232F3E;gradientColor=none;fillColor=#D45B07;strokeColor=none;dashed=0;verticalLabelPosition=bottom;verticalAlign=top;align=center;html=1;fontSize=12;fontStyle=0;aspect=fixed;pointerEvents=1;shape=mxgraph.aws4.container_registry_image;labelBackgroundColor=none;" vertex="1" parent="TIX_3B0mCCPL17P6vs3_-1">
                    <mxGeometry x="530" y="191" width="208" height="208" as="geometry"/>
                </mxCell>
                <mxCell id="TIX_3B0mCCPL17P6vs3_-10" value="&lt;span style=&quot;color: rgb(240 , 240 , 240) ; font-family: &amp;#34;helvetica&amp;#34; ; font-size: 12px ; font-style: normal ; font-weight: 400 ; letter-spacing: normal ; text-align: left ; text-indent: 0px ; text-transform: none ; word-spacing: 0px ; background-color: rgb(42 , 42 , 42) ; display: inline ; float: none&quot;&gt;The answer is: ____&lt;/span&gt;" style="text;whiteSpace=wrap;html=1;fontColor=#FFFFFF;" vertex="1" parent="TIX_3B0mCCPL17P6vs3_-1">
                    <mxGeometry x="100" y="330" width="120" height="30" as="geometry"/>
                </mxCell>
            </root>
        </mxGraphModel>
    </diagram>
</mxfile>